<?xml version="1.0" encoding="utf-8"?>
<!-- Generator: Adobe Illustrator 16.0.2, SVG Export Plug-In . SVG Version: 6.00 Build 0)  -->
<!DOCTYPE svg PUBLIC "-//W3C//DTD SVG 1.1//EN" "http://www.w3.org/Graphics/SVG/1.1/DTD/svg11.dtd">
<svg version="1.1" id="Ebene_1" xmlns="http://www.w3.org/2000/svg" xmlns:xlink="http://www.w3.org/1999/xlink" x="0px" y="0px"
	 width="147.42px" height="112.2px" viewBox="0 0 147.42 112.2" enable-background="new 0 0 147.42 112.2" xml:space="preserve">
<g>
	<path d="M5.002,35.303v-17.18h2.332l9.023,13.488V18.123h2.18v17.18h-2.332l-9.023-13.5v13.5H5.002z"/>
</g>
<g>
	<path d="M39.346,94.803v-17.18h2.332l9.023,13.488V77.623h2.18v17.18h-2.332l-9.023-13.5v13.5H39.346z"/>
</g>
<polygon points="12.417,65.053 10.718,66.003 10.718,37.503 12.417,37.503 "/>
<polygon points="36.218,78.753 35.368,80.253 10.718,66.003 12.417,65.053 "/>
<polygon points="39.218,73.603 38.368,75.103 17.118,62.803 17.968,61.353 "/>
<polygon points="79.468,65.053 80.317,65.503 80.418,66.453 56.868,80.053 56.018,78.553 "/>
<polygon points="79.468,26.303 80.317,25.853 81.168,26.453 81.168,64.902 80.317,65.503 79.468,65.053 "/>
<rect x="73.518" y="29.253" width="1.7" height="32.85"/>
<polygon points="45.968,6.953 45.968,5.003 80.418,24.903 80.317,25.853 79.468,26.303 "/>
<polygon points="22.417,20.553 21.567,19.103 45.968,5.003 45.968,6.953 "/>
<polygon points="25.417,25.703 24.567,24.253 45.518,12.153 46.368,13.603 "/>
<g>
	<path d="M111.455,87.248v-17.18h2.332l9.023,13.488V70.068h2.18v17.18h-2.332l-9.023-13.5v13.5H111.455z"/>
</g>
<g>
	<path d="M111.549,107.201v-17.18h2.273v7.055h8.93v-7.055h2.273v17.18h-2.273v-8.098h-8.93v8.098H111.549z"/>
</g>
<g>
	<path d="M111.455,22.998V5.818h2.332l9.023,13.488V5.818h2.18v17.18h-2.332l-9.023-13.5v13.5H111.455z"/>
</g>
<polygon points="108.567,73.803 108.067,75.402 80.418,66.453 80.317,65.503 81.168,64.902 "/>
<polygon points="140.317,45.703 142.418,45.703 126.168,68.103 124.768,67.103 "/>
<polygon points="125.617,25.403 126.968,24.403 142.418,45.703 140.317,45.703 "/>
<polygon points="120.768,28.903 122.168,27.903 134.718,45.203 133.317,46.153 "/>
<polygon points="81.168,26.453 80.317,25.853 80.418,24.903 108.067,15.953 108.567,17.553 "/>
<g>
</g>
<g>
</g>
<g>
</g>
<g>
</g>
<g>
</g>
<g>
</g>
<g>
</g>
<g>
</g>
<g>
</g>
<g>
</g>
<g>
</g>
<g>
</g>
<g>
</g>
<g>
</g>
<g>
</g>
</svg>
